<?xml version="1.0" encoding="UTF-8"?>
<!DOCTYPE svg PUBLIC "-//W3C//DTD SVG 1.1//EN" "http://www.w3.org/Graphics/SVG/1.1/DTD/svg11.dtd">
<!-- Creator: CorelDRAW 2020 (64-Bit) -->
<svg xmlns="http://www.w3.org/2000/svg" xml:space="preserve" width="3.90748in" height="1.12518in" version="1.1" style="shape-rendering:geometricPrecision; text-rendering:geometricPrecision; image-rendering:optimizeQuality; fill-rule:evenodd; clip-rule:evenodd"
viewBox="0 0 4292.58 1236.07"
 xmlns:xlink="http://www.w3.org/1999/xlink"
 xmlns:xodm="http://www.corel.com/coreldraw/odm/2003">
 <defs>
  <style type="text/css">
   <![CDATA[
    .fil0 {fill:#F58634}
    .fil1 {fill:#EEA920}
    .fil2 {fill:#EEA920;fill-rule:nonzero}
   ]]>
  </style>
 </defs>
 <g id="Layer_x0020_1">
  <metadata id="CorelCorpID_0Corel-Layer"/>
  <g id="_2868245238048">
   <path class="fil0" d="M202.58 704.07c-0.01,-1.55 2.47,-4.11 2.75,-3.41l150.52 -177.6c11.36,-8.7 16.15,-15.25 26.96,-23.87l57.14 -39.92c52.72,-35.26 138.88,-73.91 202.44,-88.72 -0.83,0.72 -2.24,0.61 -2.63,1.99l-52.81 35c-102.24,72.17 -163.8,202.16 -174.69,213.51 -13.7,14.28 -107.88,38.53 -139.64,54.46l-70.03 28.56zm472.16 -125.55c6.75,-14.06 13.92,-47.31 18.44,-64.75 16.1,-62.1 77.26,-234.05 150.61,-127.42 46.42,67.5 62.7,174.32 71.26,192.16l-143.27 -4.62c-39.13,0 -58.8,4.62 -97.05,4.62zm271.9 -213.36c1.57,-0.03 3.24,1.1 3.7,2.46l64.52 23.29c12.69,5.08 19.13,9.51 31.12,15.09 80.42,37.48 129.82,59.66 196.65,126.86 31.97,32.15 66.62,62.41 96.25,97.85 15.81,18.91 27.91,36.3 47.58,49.47 -2.43,-29.29 -75.33,-110.16 -98.2,-132.88 -10.53,-10.46 -16.7,-17.3 -28.27,-27.19 -0.73,-0.62 -1.77,-1.5 -2.5,-2.11 -42.48,-35.82 -44.28,-39.48 -99.31,-76.31 -24.37,-16.31 -46.14,-29 -73.69,-41.85 -8.23,-3.84 -10.69,-4.65 -19.13,-8.6 -235.9,-110.58 -526.17,-56.34 -715.24,112.22l-45.99 41.82c-0.62,0.72 -1.47,1.79 -2.09,2.53 -77.41,91.59 -120.11,136.76 -171.98,262.44 -23.81,57.69 -55.39,143.1 -60.74,207.31l9.24 0c18.08,-77.61 56.61,-180.66 90.86,-251.13 15.5,-31.91 9.68,-26.1 41.59,-41.59 22.46,-10.9 35.53,-18.06 59.67,-28.14 27.76,-11.6 97.61,-41.8 126.77,-44.23 -21.02,39.73 -54.07,134.59 -64.7,180.24 16.5,-5.97 11.92,-8.72 25.73,-43.6 63.3,-159.99 46.68,-150.48 174.98,-171.63 22.55,-3.72 39.91,-7.82 58.82,-10.5 17.67,-2.51 47.25,-4.15 59.36,-9.96 0,40.18 -23.11,126.51 -23.11,180.24 12.39,-9.07 20.28,-66.31 24.29,-86.62 4.96,-25.12 17.3,-65.12 17.3,-93.62 26.37,0 31.97,-4.62 60.08,-4.62l138.65 0c25.66,0 27.4,4.62 50.84,4.62 0.49,21.97 9.72,46.87 14.23,68.95 2.36,11.54 5.4,23.36 8.22,33.37 5.06,18 2.39,22.81 14.51,31.7 0,-51.9 -17.48,-89.02 -18.49,-134.02 6.01,2.88 191.35,27.62 223.49,44.56 26.04,13.73 16.35,40.34 44.56,47.87 -1.43,-17.22 -7.24,-24.46 -13.87,-36.97 18.51,0.41 48.58,12.84 64.07,19.12 13.37,5.42 49.61,21.16 65.34,22.47l-119.72 -60.52c-34.68,-12.15 -24.59,-14.62 -42.88,-44.93l-51.36 -78.04c-32.74,-38.74 -67.83,-77.52 -109.51,-107.7 -19.08,-13.81 -34.13,-21 -55.5,-32.31l3.85 -5.39zm-100.9 -8.47c83.39,19.42 157.68,58.71 213.02,124.34l6.28 7.59c24.22,28.81 81.74,99.26 90.34,131.49 -58.63,-13.66 -115.64,-27.77 -176.91,-34.96 -21.62,-2.54 -41.26,5.39 -50.5,-19.54 -13.1,-35.33 -28.72,-122.89 -53.47,-163.74 -10.29,-16.98 -19.35,-27.42 -28.75,-45.19zm-189.48 226.45c-56.21,0 -116.61,13.02 -169.89,24.21 -15.67,3.29 -35.28,11.37 -51.94,12.76 8.23,-15.54 14.71,-28.58 25.18,-44.14l29.51 -44.43c59.39,-73.51 154.4,-166.11 259.56,-174.86 -10.89,16.27 -22.81,27.58 -32.49,46.08 -38.03,72.67 -45.05,149.35 -59.94,180.37z"/>
   <path class="fil1" d="M406.69 5.45c0,33.33 21.91,44.88 64.83,69.2 40.64,23.03 80.38,23.35 83.06,55.58 -27.06,-0.6 -17.69,-7.25 -41.59,-9.24 -8.29,12.38 -21.41,27.57 -5.37,41.95 6.53,5.85 36.3,15.64 46.97,18.13l0 60.08c42.4,9.87 34.45,-12.69 78.57,-78.56l161.08 46.89c46.45,16.76 37.63,23.44 94.31,-31.82 12.58,-12.26 20.28,-14.08 21.9,-33.56 -82.01,-19.63 -56.26,49.59 -154.05,-3.08 -17.9,-9.64 -27.67,-19.61 -49.3,-24.65l21.54 -15.44c49.15,-27.19 102.26,-46.36 155.05,-66.78 18.05,-6.98 17.58,-2.37 22.14,-19.45 -18.62,-4.34 -23.09,-13.87 -41.59,-13.87 -37.96,0 -110.62,32.35 -157.13,32.35 -18.05,0 -78.56,-63.41 -78.56,0 0,10.36 3.66,10.15 9.24,18.49 -43.67,0 -19.87,16.72 -92.43,-18.49 -36.93,-17.92 -94.67,-44.79 -138.64,-27.73z"/>
   <path class="fil1" d="M217.21 1082.26c-136.64,0 -180.88,-36.16 -217.21,-36.97 4.74,17.76 6.95,12.79 36.94,27.75 71.6,35.71 82.91,24.95 125.38,36.38 83.34,22.43 226.07,-15.51 303.54,-51.17 98.64,-45.4 264.46,-153.98 348.16,-187.93 125.59,-50.94 124.51,-60.73 267.4,-60.73 30.69,0 57.84,5.77 85.04,12.01l76.71 20.34c-1.57,-18.85 -4.68,-16.78 -18.12,-23.48 -33.91,-16.91 -58.37,-27.39 -97.31,-36.72 -92.82,-22.23 -140.93,-15.83 -227.19,8.73 -224.88,45.91 -457.09,291.78 -683.35,291.78z"/>
   <path class="fil1" d="M942.78 222.66c0,15.5 13.82,13.97 52.13,21.82 24.59,5.04 37.56,6.64 61.37,12.57 75.09,18.72 154.97,48.29 225.19,79.84 274.09,123.15 508.16,390.27 226.3,672.58 -12.18,12.2 -20.29,21.38 -33.42,31.29 -13.36,10.07 -27.55,18.05 -37.07,32.26 41.27,-3.43 235.7,-165.82 235.7,-328.13 0,-130.49 -47.02,-207.08 -128.21,-283.1 -16.31,-15.27 -23.8,-22.42 -41.35,-37.21 -50.65,-42.7 -130.62,-90.94 -192.86,-116.78 -78.81,-32.73 -145.2,-59.08 -231.83,-77.81 -40.41,-8.74 -85.44,-25.81 -131.32,-25.81 -2.97,12.4 -4.62,8.71 -4.62,18.49z"/>
   <path class="fil0" d="M305.02 1211.66c-55.17,0 -92.82,-13.87 -124.78,-13.87 4.61,17.27 14.14,16.71 51.67,26.89 135.45,36.76 271.97,-20.86 378.11,-96.23l108.13 -76.73c128.91,-85.61 204.42,-140.45 372.19,-121.65 21.51,2.41 40.38,11.68 55.79,4.29 -10.33,-14.1 -28.83,-18.89 -49.12,-24.83 -176.37,-51.61 -325.46,55.88 -451.86,143.13 -90.06,62.17 -193.72,158.99 -340.13,158.99z"/>
   <path class="fil0" d="M1472 793.47c-34.89,63.79 -81.22,103.26 -134.9,147.02l-99.4 66.97c-29.76,19.17 -116.61,66.64 -151.65,74.8l0 9.24c52.48,-4.37 229.31,-96.66 285.68,-134.88 189.27,-128.33 233.59,-302.79 41.71,-456.68l-3.89 4.04c73.52,89.48 130.65,164.77 62.45,289.48z"/>
   <g>
    <polygon class="fil0" points="1834.75,1006.6 2198.81,1006.6 2198.81,986.49 1834.75,986.49 "/>
    <polygon class="fil0" points="3847.67,1006.6 4211.72,1006.6 4211.72,986.49 3847.67,986.49 "/>
   </g>
   <path class="fil1" d="M3602.14 1050.89l27.44 0 0 -86.87 45.72 0 0 86.87 22.86 0 0 -86.87c56.77,0 45.72,-13.62 45.72,86.87l27.43 0c0,-127.13 11,-109.73 -169.18,-109.73l0 109.73z"/>
   <path class="fil1" d="M3076.32 996.02l-68.58 0 0 -32.01 64.01 0c10.7,0 18.29,7.59 18.29,18.29 0,10.54 -3.18,13.71 -13.72,13.71zm-96.02 -41.15l0 96.02 27.43 0 0 -27.43c81.13,0 51.7,30.54 91.44,41.15l13.17 -9.81c-7.31,-28.76 -20.31,-11.27 -26.88,-35.91 41.78,-9.74 39.89,-77.73 -18.29,-77.73 -56.26,0 -86.87,-8.12 -86.87,13.72z"/>
   <path class="fil1" d="M3359.81 977.74c0,9.19 8.76,18.66 13.86,22.71 18.36,14.58 44.69,8.21 68.95,8.78 26.02,0.61 17.82,-2.97 26.92,14.23 -13.4,6.43 -34.92,5.29 -55.19,4.93 -2.88,-0.05 -10.61,-0.19 -13.17,-0.57 -22.21,-3.26 -6.9,-1.86 -13.94,-4.35l-27.43 -4.58c0.95,42.58 26.73,32.01 100.59,32.01 42.03,0 48.38,-61.9 -8.89,-64.27 -24.15,-0.99 -46.49,4.21 -64.27,-4.32 2.7,-24.71 16.24,-18.29 68.59,-18.29 26.02,0 -7.07,13.72 36.58,13.72 0,-43.89 -24.52,-36.58 -91.44,-36.58 -20.39,0 -41.15,18.52 -41.15,36.58z"/>
   <path class="fil1" d="M2523.08 1014.31c0,-56.97 -4.98,-50.3 64.01,-50.3 23.42,0 18.29,27.06 18.29,50.3 0,20.31 -21.34,13.72 -68.58,13.72 -10.54,0 -13.72,-3.18 -13.72,-13.72zm-27.43 -22.86c0,69.58 17.29,59.44 100.59,59.44 40.34,0 32.01,-36.4 32.01,-82.3 0,-35.52 -68.82,-27.43 -91.44,-27.43 -28.07,0 -41.15,21.76 -41.15,50.3z"/>
   <path class="fil1" d="M2742.55 959.44c0,16.15 -5.22,66.7 3.38,78.53 14.13,19.42 56.57,12.92 92.63,12.92 43.13,0 32.01,-44.95 32.01,-109.73l-22.86 0c0,104.19 15.9,86.88 -68.59,86.88 -21.83,0 -13.71,-30.61 -13.71,-86.88 -37.31,0 -22.86,2 -22.86,18.29z"/>
   <path class="fil1" d="M2262.46 964.02c67.91,0 54.87,-15.28 54.87,86.87l22.86 0 0 -86.87 54.87 0 0 -22.86 -132.6 0 0 22.86z"/>
   <path class="fil1" d="M3222.64 954.87l0 96.02 27.43 0 0 -109.73 -13.71 0c-10.54,0 -13.72,3.18 -13.72,13.72z"/>
   <g>
    <path class="fil0" d="M2713.74 451.99l-48.06 0c-17.87,0 -29.31,-12.74 -29.31,-30.52l0 -66.92 -39.85 0 0 75.13c0,23.06 -6.6,22.3 -23.45,22.3 -18.26,0 -30.47,-10.21 -30.47,-28.17l0 -50.48 -42.2 0 1.17 63.39c0,17.87 -6.87,15.26 -22.27,15.26 -6.88,0 -16.51,-3.26 -20.66,-6.31 -10.81,-7.91 -7.47,-41.76 -7.47,-58.26l-41.03 0c0,12.67 2.13,54.06 -2.34,63.39 -9.56,2.23 -75.01,3.52 -89.08,3.52 -9.68,0 -15.08,-5.08 -19.27,-11.22 -3.83,-5.63 -7.69,-13.97 -7.69,-22.82l0 -63.39c-48.04,0 -39.86,-6.62 -39.86,24.66 0,10.92 1.91,61.56 -2.32,68.11 -1.57,2.43 -5.41,4.68 -9.4,4.68l-56.26 0c0,-18.7 -1.17,-33.13 -1.17,-51.65l0.01 -78.66c0.06,-9.92 -1.21,-15.44 -1.18,-25.82l0.04 -38.78c0.22,-13.57 4.66,-10.52 -38.72,-10.52 -5.8,0 -3.52,15.76 -3.52,27l0 63.39c-0.03,11.5 1.18,18.67 1.17,30.52l-0.01 110.37c-0.04,7 1.07,10.01 1.19,15.25l104.32 0c10.74,0 14.34,-4.04 21.49,-7.83 16.69,-8.86 9.5,-9.69 16.01,-14.48 7.28,4.87 11.43,19.96 31.65,19.96l82.05 0c15.27,0 41.91,-6.89 45.72,-21.13 1.52,1.12 12.47,21.13 37.5,21.13 45.67,0 37.75,-10.3 53.92,-21.13 6.67,9.98 5.55,7.68 14.54,13.61 28.21,18.6 73.55,0.93 78.05,-15.96 9.94,6.66 9.89,21.13 37.51,21.13l55.09 0c12.11,0 35.31,-6.62 38.68,-21.13 7.42,4.98 16.96,21.13 41.02,21.13l93.77 0c0,-81.16 -2.34,-165.61 -2.34,-246.52l-42.2 0 1.17 153.78c0,18.62 1.17,33.03 1.17,51.65 -17.55,0 -62.3,3.04 -72.44,-6.1 -4.84,-4.36 -10.77,-14.52 -10.77,-23.25l0 -176.08 -42.2 0 1.49 166.37c0.95,6.89 1.43,18.48 0.83,27.3 -0.62,9.04 -4.34,14.11 -14.04,14.11z"/>
    <path class="fil0" d="M3360.75 417.94c0,-20.09 -1,-29.84 18.65,-40.02 16.93,-8.78 42.3,-1.86 42.3,21.24l0 44.61c-16.71,0 -39.2,2.75 -50.74,-7.88 -4.69,-4.33 -10.21,-10.76 -10.21,-17.94zm-223.87 -3.52c0,-13.97 2.12,-16.69 8.4,-26.8 2.94,-4.72 2.22,-5.21 7.98,-7.27 12.69,-4.54 16.07,-4.98 29.55,-0.18 5.29,1.88 14.37,13.01 16.08,17.93 3.75,10.73 3.42,29.65 -3.03,39 -11.22,16.27 -47.28,18.95 -56.52,-7.53 -1.47,-4.2 -2.45,-9.61 -2.45,-15.15zm398.52 -164.34c0,65.83 1.17,127.88 1.17,193.69l-71.5 0c0,-23.67 1.29,-28.77 -2.02,-50.81 -2.96,-19.84 -4.52,-21.88 -15.06,-35.39 -21.38,-27.38 -69.26,-26.16 -89.6,-12.43 -9.39,6.35 -19.77,13.33 -26.28,22.99 -15.67,23.25 -19.54,48.78 -5.35,75.64l-23.27 1.35c-17.88,2 -54.79,5.54 -61.36,-15.19 -2.34,-7.35 1.39,-18.82 -4.19,-40.41 -6.14,-23.75 -17.57,-40.56 -41.75,-47.41 -25.08,-7.1 -49.9,-4.36 -70.54,10.59 -10.89,7.88 -13.81,10.74 -20.43,24.16 -20.02,40.6 -4.39,37.96 -11.69,56.38 -6.92,17.47 -18.83,12.88 -48.08,12.88 -9.57,0 -15.94,-3.49 -20.15,-9.16 -3.04,-4.09 -6.8,-15.48 -6.8,-22.53l0 -62.22 -41.03 0 0 142.04c0,24.76 -23.94,22.31 -36.33,22.31 -7.06,0 0.1,-2.35 -15.24,-2.35 -1.01,12.23 -3.67,26.52 -4.69,38.74 7.99,4.23 26.25,2.35 39.86,2.35 5.36,0 10.48,-0.95 14.24,-2.18 26.77,-8.71 43.14,-33.48 44.35,-61.23 0.31,-6.94 1.19,-10.28 1.19,-16.42 22.68,15.21 30.6,11.74 60.95,11.74 7.75,0 12.96,-4.38 18.06,-7.75 6.55,-4.33 9.27,-6.06 11.25,-14.56 6.41,1.72 19.31,22.31 41.02,22.31 14.45,0 35.56,1.3 48.12,-2.29 16.92,-4.82 23.68,-19.81 29.25,-23.53 3.62,15.55 23.89,23.48 39.85,23.48l280.17 -1.15c8.45,0.03 12.06,-1.31 21.13,-1.14 11.86,0.22 8.14,3.62 8.14,-31.75 0,-14.35 0.4,-29.91 -1,-42.43l-1.35 -84.35c0.01,-30 -1.17,-56.29 -1.17,-85.7l-39.85 0 0 11.74z"/>
    <path class="fil0" d="M4134.34 437.9c4.21,-18.09 6.79,-30.4 19.6,-43.76 2.99,-3.12 5.41,-4.46 8.11,-7.14 10.86,-10.76 15.53,-15.42 31.85,-17.41 19.36,-2.36 25.65,-3.75 39.43,4.39 20.7,12.23 16.1,36.96 17.55,47 0.63,4.36 1.56,10.97 1.86,14.58 -11.09,0 -17.45,1.22 -28.13,1.18 -10.16,-0.03 -20.34,0.01 -30.5,-0.03l-29.28 1.2c-10.16,0 -20.32,0 -30.47,0zm-286 -190.17c0,21.99 -1.17,102.91 0.85,117.71 1.22,8.89 0.57,83.27 0.3,103.01 -0.07,5.43 -1.57,11.72 3.54,11.72l91.42 0c15.19,0 29.92,-2.66 39.53,-13.24 3.03,-3.35 6.29,-6.82 7.36,-11.41 3.09,2.07 12.61,15.73 21.03,20.02 15.98,8.17 40.86,3.36 55.13,3.43l184.05 -1.15c15.18,0 25.96,-1.17 41.02,-1.17l0 -68.08c0,-18.74 -9.65,-46.34 -22.52,-58.44 -7.32,-6.88 -15.48,-11.07 -24.86,-15.03 -9.3,-3.92 -20.92,-7.54 -33.5,-7.54 -29.09,0 -52.94,14.29 -71.82,32.55 -2.97,2.87 -4.62,5.17 -7.88,7.36l0 -25.82 -39.86 0 0 96.26 -66.8 0c-15.62,0 -24.62,-14.37 -24.62,-30.52l0 -65.74 -42.19 0c0,17.97 1.17,31.7 1.17,49.31 0,29.06 3.2,21.97 -2.34,45.78 -11.31,2.64 -50.24,1.17 -64.46,1.17l-1.17 -102.13c0.01,-17.11 -1.17,-32.26 -1.17,-50.48 0,-17.21 0,-34.43 0,-51.65l-42.2 0 0 14.09z"/>
    <path class="fil0" d="M1810.03 422.64c0,-11.03 12.43,-38.02 35.84,-34.81 33.08,4.54 28.63,40.96 28.63,70.03 -23.8,0 -64.46,3.05 -64.46,-35.22zm-39.85 12.63l0 -12.15c0.76,-9.81 3.3,-19.5 7.41,-28.28 12.34,-26.38 31.92,-44.98 64.09,-44.98 19.15,0 26.95,-2.03 40.79,7.27 38.52,25.9 31.88,57.24 31.88,100.73l134.79 0c-1.54,-2.32 -2.49,-3.83 -4.41,-6.15 -20.15,-24.23 -3.7,-55.57 -31.47,-62.4 -13.08,-3.22 -23.48,-0.08 -36.47,1.95 -5.62,0.88 -10.76,3.98 -15.56,4.39 -0.52,-6.32 -3.36,-13.55 -4.93,-19.71 -1.3,-5.1 -4.31,-13.17 -4.44,-19.03l3.52 0 42.19 -10.56c18.38,0 35.36,1.8 49.48,10.32 16.41,9.9 13.93,15.19 20.87,30.75 3.36,7.53 6.46,23.97 7.03,31.69 0.42,5.61 3.44,15.43 5.78,20.03 3.3,6.52 3.71,4 7.41,9.01 7.62,10.31 10.23,7.69 10.23,12.06l0 35.22c-5.13,0.11 -7.32,1.23 -14.04,1.2 -4.7,-0.02 -9.4,-0.03 -14.09,-0.03l-26.93 1.21c-18.75,0.56 -38.59,-0.03 -57.47,-0.03 -19.81,0 -35.99,1.17 -56.26,1.17 -19.14,0 -38.29,0 -57.43,0 -30.47,0 -51.71,0.92 -76.19,-16.44 -16.28,-11.55 -24.35,-29.02 -25.79,-47.24z"/>
    <path class="fil0" d="M3637.37 482.51l39.86 0c0,-20.74 0,-41.48 0,-62.22 0,-21.85 -1.17,-39.75 -1.17,-61.04l0 -92.73c0,-11.71 -1.18,-20.1 -1.18,-30.53l-42.19 0c0,78.37 4.68,168.17 4.68,246.53z"/>
    <path class="fil0" d="M3722.93 409.73c0,13.82 3.72,23.82 10.55,34.04l-25.79 0 0 38.74c19.15,0 36.07,-1.25 56.26,-1.18 10.7,0.04 17.03,-1.19 28.13,-1.18 9.77,0.01 19.53,0 29.3,0l0 -36.39c-20.21,0 -58.61,3.91 -58.61,-25.82 0,-10.13 12.1,-16.44 22.27,-16.44 6.07,0 4.28,2.35 21.1,2.35 4.38,0 4,-6.34 5.7,-16.59 0.68,-4.13 2.46,-16.08 3.68,-18.63 -16.49,-3.85 -12.32,-3.52 -29.31,-3.52 -26.42,0 -44.5,3.3 -56.66,24.25 -2.24,3.85 -6.63,15 -6.63,20.36z"/>
    <path class="fil0" d="M2278.88 537.69c0,6.56 2.93,11.39 6.53,14.59 0.18,0.16 0.45,0.38 0.64,0.54l4.31 2.73c2.04,1.07 4.9,1.83 8.09,2.1l4.78 0c9.7,-0.79 20.19,-6.55 20.19,-22.31 0,-4.37 -4.07,-11.08 -6.78,-13.16 -14.77,-11.42 -37.76,-3.7 -37.76,15.52z"/>
    <path class="fil0" d="M3399.43 294.69c0,20.17 26.44,25.79 38.44,13.84 14.32,-14.25 2.11,-34.98 -17.34,-34.98 -11.26,0 -21.09,9.69 -21.09,21.13z"/>
    <path class="fil0" d="M1848.72 307.6c0,1.92 1.27,6.97 1.99,8.57 7.9,17.62 42.55,18.06 42.55,-9.75 0,-21.98 -34.46,-25.27 -42.23,-7.08 -0.42,0.99 -2.31,7.1 -2.31,8.26z"/>
    <path class="fil0" d="M1794.8 308.77c0,16.35 22.64,26.38 34.95,15.05 19.18,-17.68 -2.19,-44.15 -22.71,-34.49l-3.72 2.15c-4.79,3.24 -8.52,10.3 -8.52,17.29z"/>
    <path class="fil0" d="M4183.58 287.64c0,11.78 11.13,18.77 14.06,18.77l14.07 0c6.86,0 16.41,-8.1 16.41,-17.61 0,-7.57 -10.12,-19.95 -17.59,-19.95 -11.69,0 -15.09,-1.83 -22.61,6.7 -2.67,3.02 -4.34,6.8 -4.34,12.09z"/>
    <path class="fil0" d="M3932.74 515.38c0,29.47 13.08,25.82 28.13,25.82 8.52,0 23.25,-17.37 9.55,-31.87 -0.16,-0.18 -0.41,-0.42 -0.58,-0.59 -0.17,-0.17 -0.42,-0.42 -0.59,-0.58 -10.68,-10.22 -36.52,-2.71 -36.52,7.22z"/>
    <path class="fil0" d="M3345.51 292.34c0,8.14 -0.54,11.54 5.51,16.78 19.18,16.55 49.21,-6.08 30.87,-28.58 -5.86,-7.19 -19.61,-11.95 -31.2,1.74 -2.68,3.17 -5.19,5.28 -5.19,10.06z"/>
    <path class="fil0" d="M2224.97 537.69c0,13.63 9.74,19.81 19.86,19.95l0.74 0c10.7,-0.14 21.59,-6.97 21.59,-18.78 0,-16.1 -21.02,-35.53 -39.53,-10.25 -1.94,2.65 -2.66,4.81 -2.66,9.08z"/>
    <path class="fil0" d="M3987.83 520.07c0,29.15 35.66,24.15 40.64,11.36 6.7,-17.18 -8.58,-27.78 -12.51,-27.78l-12.89 0c-6.67,0 -15.24,9.7 -15.24,16.43z"/>
   </g>
   <path class="fil2" d="M1953.39 718.26c0,-22.43 -20.37,-41.07 -45.22,-41.07l-117.68 0 0.35 134.94 117.69 0c24.84,0 44.86,-17.6 44.86,-40.38l0 -53.49zm-27.96 53.49c0,8.64 -7.93,15.88 -17.26,15.88l-89.38 0 0 -85.59 89.38 0c9.32,0 17.26,7.59 17.26,16.22l0 53.49zm215.35 -69.71l0 -24.85 -162.89 0 0.35 134.94 162.89 0 -0.35 -24.5 -134.59 0 0 -41.41 134.59 0 0 -25.19 -134.59 0 0 -18.98 134.59 0zm74.9 46.94c4.83,5.17 10.01,9.67 16.56,11.73l0 52.11 27.95 0 0 -52.11c5.87,-2.07 11.39,-6.56 15.53,-11.73l58.32 -71.44 -34.51 0 -45.9 56.6c-2.41,2.76 -5.52,4.13 -7.59,4.13 -2.76,0 -5.52,-1.38 -7.94,-4.13l-45.55 -56.6 -34.86 0 57.98 71.44zm297.49 63.15l-0.34 -93.87c0,-22.43 -20.36,-41.07 -45.21,-41.07l-72.13 0c-25.19,0 -45.55,18.64 -45.55,41.07l0.34 93.87 28.3 0 -0.35 -39.34 106.64 0 0.35 39.34 27.95 0zm-134.94 -64.19l0 -29.68c0,-8.63 7.6,-16.22 17.26,-16.22l72.13 0c9.32,0 17.25,7.59 17.25,16.22l0 29.68 -106.64 0zm321.99 64.19l-0.34 -93.87c0,-22.43 -20.37,-41.07 -45.22,-41.07l-72.13 0c-25.18,0 -45.55,18.64 -45.55,41.07l0.34 93.87 28.3 0 -0.35 -39.34 106.64 0 0.35 39.34 27.95 0zm-134.94 -64.19l0 -29.68c0,-8.63 7.59,-16.22 17.25,-16.22l72.13 0c9.32,0 17.26,7.59 17.26,16.22l0 29.68 -106.64 0zm440.71 64.19l-0.34 -93.87c0,-22.43 -20.36,-41.07 -45.21,-41.07l-72.13 0c-25.19,0 -45.55,18.64 -45.55,41.07l0.34 93.87 28.3 0 -0.35 -39.34 106.64 0 0.35 39.34 27.95 0zm-134.94 -64.19l0 -29.68c0,-8.63 7.6,-16.22 17.26,-16.22l72.13 0c9.32,0 17.25,7.59 17.25,16.22l0 29.68 -106.64 0zm317.16 64.19l-0.34 -24.5 -134.94 0 0 -110.44 -28.29 0 0.34 134.94 163.23 0zm297.14 -40.72l0 -53.49c0,-22.43 -20.36,-40.72 -45.56,-40.72l-71.77 0c-25.2,0 -45.56,18.29 -45.56,40.72l0 53.49c0,22.43 20.36,41.41 45.56,41.41l59.35 0 34.51 31.06 19.68 -17.6 -20.36 -18.64c14.83,-6.9 24.16,-21.39 24.16,-36.23zm-86.28 16.22l-31.06 0c-9.67,0 -17.61,-7.59 -17.61,-16.22l0 -53.49c0,-8.63 7.94,-15.87 17.61,-15.87l71.77 0c10.01,0 17.61,7.24 17.61,15.87l0 53.49c0,8.63 -7.59,16.22 -17.61,16.22l-1.03 0 -40.04 -35.55 -19.32 17.26 19.67 18.29zm269.88 24.5l-0.35 -93.87c0,-22.43 -20.36,-41.07 -45.21,-41.07l-72.13 0c-25.19,0 -45.55,18.64 -45.55,41.07l0.35 93.87 28.3 0 -0.35 -39.34 106.64 0 0.35 39.34 27.95 0zm-134.94 -64.19l0 -29.68c0,-8.63 7.6,-16.22 17.26,-16.22l72.13 0c9.32,0 17.26,7.59 17.26,16.22l0 29.68 -106.64 0zm319.93 -45.9c9.66,0 17.6,7.59 17.6,16.22l0.34 93.87 27.95 0 -0.34 -93.87c0,-22.43 -20.71,-41.07 -45.55,-41.07l-160.83 0 0.35 134.94 28.3 0 -0.35 -110.09 60.74 0 0.35 110.09 27.61 0 -0.34 -110.09 44.18 0zm233.3 110.09l-0.34 -93.87c0,-22.43 -20.37,-41.07 -45.22,-41.07l-72.13 0c-25.18,0 -45.55,18.64 -45.55,41.07l0.35 93.87 28.3 0 -0.35 -39.34 106.64 0 0.35 39.34 27.95 0zm-134.94 -64.19l0 -29.68c0,-8.63 7.59,-16.22 17.25,-16.22l72.13 0c9.32,0 17.26,7.59 17.26,16.22l0 29.68 -106.64 0zm157.03 -70.06l0 134.93 27.26 0 0 -38.99 52.11 0 63.16 55.9 20.36 -17.6 -44.18 -38.3c24.5,-1.04 44.18,-18.98 44.18,-41.07l0 -13.81c0,-22.43 -20.36,-41.07 -45.21,-41.07l-117.68 0zm134.93 41.07l0 13.81c0,8.97 -7.93,15.53 -17.25,15.53l-90.41 0 0 -45.22 90.41 0c9.32,0 17.25,6.91 17.25,15.88z"/>
  </g>
 </g>
</svg>
